<svg width="512" height="512" viewBox="0 0 512 512" xmlns="http://www.w3.org/2000/svg">
  <!-- 그라데이션 배경 -->
  <defs>
    <linearGradient id="bgGradient" x1="0%" y1="0%" x2="100%" y2="100%">
      <stop offset="0%" style="stop-color:#667eea;stop-opacity:1" />
      <stop offset="100%" style="stop-color:#764ba2;stop-opacity:1" />
    </linearGradient>
    <linearGradient id="shieldGradient" x1="0%" y1="0%" x2="100%" y2="100%">
      <stop offset="0%" style="stop-color:#ffffff;stop-opacity:1" />
      <stop offset="100%" style="stop-color:#f0f0f0;stop-opacity:1" />
    </linearGradient>
    <linearGradient id="heartGradient" x1="0%" y1="0%" x2="100%" y2="100%">
      <stop offset="0%" style="stop-color:#f093fb;stop-opacity:1" />
      <stop offset="100%" style="stop-color:#f5576c;stop-opacity:1" />
    </linearGradient>
  </defs>
  
  <!-- 배경 -->
  <rect width="512" height="512" rx="100" fill="url(#bgGradient)"/>
  
  <!-- 방패 -->
  <path d="M 256 80 L 160 120 L 160 240 C 160 320 200 380 256 420 C 312 380 352 320 352 240 L 352 120 Z" 
        fill="url(#shieldGradient)" 
        stroke="#667eea" 
        stroke-width="8"/>
  
  <!-- 하트 -->
  <path d="M 256 280 C 240 260 200 240 180 260 C 160 280 160 300 180 320 L 256 380 L 332 320 C 352 300 352 280 332 260 C 312 240 272 260 256 280 Z" 
        fill="url(#heartGradient)"/>
</svg>
